<svg width="140" height="140" viewBox="0 0 140 140" fill="none" xmlns="http://www.w3.org/2000/svg">
<circle cx="70" cy="70" r="70" fill="#FEBC11"/>
<g clip-path="url(#clip0_38_2538)">
<path d="M67.1366 119.875C65.3268 119.604 63.5169 119.441 61.7611 119.089C48.687 116.486 38.5572 109.517 31.75 98.0739C20.0535 78.3606 24.8617 53.6309 42.9333 39.5849C47.6605 35.9242 52.955 33.3753 58.7357 31.8297C59.0598 31.7484 59.384 31.667 59.6001 31.5857C59.33 30.0401 58.8978 28.5758 58.8708 27.0845C58.7357 21.5799 62.5985 16.9431 68.001 15.9127C68.1901 15.8856 68.3792 15.7771 68.5683 15.7229C69.5138 15.7229 70.4592 15.7229 71.4046 15.7229C72.0259 15.8856 72.6472 16.0212 73.2415 16.211C79.1033 18.0006 82.4258 24.3186 80.616 30.2028C80.4809 30.6095 80.3459 31.0434 80.1838 31.5043C81.5614 31.9111 82.9121 32.2636 84.2357 32.7246C100.524 38.7714 110.546 50.3228 113.842 67.3787C116.003 78.6046 113.734 89.207 107.683 98.9145C107.359 99.4025 106.791 99.8635 106.251 100.08C105.468 100.379 104.711 100.08 104.198 99.3754C103.631 98.6162 103.712 97.8298 104.144 96.9892C105.387 94.5759 106.791 92.2439 107.764 89.7493C117.029 66.1042 102.226 39.5306 77.3745 35.0836C56.3586 31.3417 36.4772 43.9505 30.8316 64.6128C25.0238 85.7904 37.7738 108.351 58.8708 114.208C70.4052 117.407 81.3183 115.835 91.5291 109.571C92.3395 109.083 93.1499 108.839 93.9873 109.354C94.7166 109.788 95.1218 110.52 94.9057 111.334C94.7436 111.903 94.3655 112.554 93.9062 112.852C88.3956 116.404 82.3988 118.601 75.9158 119.468C74.9433 119.604 73.9979 119.739 73.0254 119.875C71.0535 119.875 69.1086 119.875 67.1366 119.875ZM77.1043 26.8675C77.0503 26.4337 76.9963 25.8642 76.8612 25.2948C76.1319 22.5561 74.4301 20.7122 71.6748 20.0343C68.8384 19.3564 66.3803 20.1428 64.5164 22.4205C62.6795 24.6983 62.3824 27.2472 63.571 29.9316C63.7601 30.3655 63.9221 30.7722 64.6515 30.7451C67.7039 30.6366 70.7563 30.5282 73.8358 30.5824C76.2939 30.6095 76.5641 30.5011 76.9963 28.0064C77.0503 27.681 77.0503 27.3556 77.1043 26.8675Z" fill="black"/>
<path d="M37.5847 75.1067C37.5847 57.1831 52.1176 42.5947 69.973 42.5947C87.8554 42.5947 102.442 57.2373 102.388 75.188C102.361 93.1116 87.7743 107.7 69.946 107.673C52.0906 107.646 37.5577 93.0303 37.5847 75.1067ZM41.7447 73.1001C42.9603 73.1001 44.0948 73.1001 45.2293 73.1001C46.715 73.1001 47.6335 73.8593 47.6605 75.0796C47.6875 76.3269 46.742 77.1404 45.2023 77.1675C44.0408 77.1675 42.8792 77.1675 41.7177 77.1675C42.6901 92.4066 55.6562 103.063 67.92 103.416C67.92 102.277 67.92 101.111 67.92 99.9719C67.92 98.4806 68.6764 97.5586 69.8919 97.5315C71.1345 97.5044 71.9449 98.4535 71.9719 99.9991C71.9719 101.165 71.9719 102.331 71.9719 103.497C87.2611 102.494 97.7691 89.3967 98.0932 77.2759C98.0392 77.2488 97.9581 77.2217 97.9041 77.2217C96.8236 77.2217 95.7431 77.2217 94.6626 77.1946C93.1769 77.1946 92.2585 76.4354 92.2314 75.2151C92.2044 73.9407 93.1499 73.1543 94.6896 73.1543C95.8511 73.1543 97.0127 73.1543 98.1742 73.1543C97.1478 57.6712 83.9655 47.2044 72.0259 46.9062C71.9989 46.9604 71.9719 47.0417 71.9719 47.096C71.9719 48.1806 71.9719 49.2652 71.9449 50.3499C71.9449 51.8412 71.1885 52.7632 69.973 52.7903C68.7034 52.8174 67.92 51.8684 67.893 50.3228C67.893 49.1568 67.893 47.9908 67.893 46.8248C54.3596 47.3942 42.2849 59.515 41.7447 73.1001Z" fill="black"/>
<path d="M99.9301 107.266C98.8225 107.239 97.9041 106.263 97.9581 105.151C98.0122 104.066 98.9576 103.199 100.011 103.226C101.119 103.253 102.037 104.229 101.983 105.341C101.929 106.398 100.984 107.293 99.9301 107.266Z" fill="black"/>
<path d="M53.09 94.359C51.4693 94.3861 50.4698 93.0303 50.929 91.7016C51.0371 91.3763 51.1991 91.078 51.3882 90.8068C55.4672 83.9194 59.5731 77.032 63.679 70.1445C64.0032 69.6022 64.5164 69.0599 65.0837 68.7345C71.9989 64.5586 78.9142 60.437 85.8294 56.2883C86.937 55.6104 87.8824 55.6646 88.6117 56.3968C89.3681 57.1289 89.4221 58.0508 88.7738 59.1897C84.6409 66.2127 80.5079 73.2357 76.321 80.2316C76.0238 80.7197 75.5376 81.1807 75.0514 81.479C68.1361 85.6277 61.1938 89.7493 54.2516 93.8709C53.8194 94.0878 53.3331 94.2505 53.09 94.359ZM66.0021 74.1306C63.625 78.1708 61.2209 82.1569 58.8437 86.17C58.8978 86.1971 58.9518 86.2514 59.0058 86.2785C63.0307 83.8923 67.0286 81.5061 70.9995 79.147C69.2977 77.4658 67.6769 75.8389 66.0021 74.1306ZM74.0519 76.11C76.402 72.124 78.7791 68.1108 81.1562 64.0977C81.1022 64.0434 81.0482 63.9892 80.9942 63.935C76.9963 66.3212 72.9984 68.7074 69.0275 71.0936C70.7293 72.7476 72.3501 74.4017 74.0519 76.11Z" fill="black"/>
</g>
<defs>
<clipPath id="clip0_38_2538">
<rect width="89.25" height="104.125" fill="white" transform="translate(25.375 15.75)"/>
</clipPath>
</defs>
</svg>
