<svg width="140" height="140" viewBox="0 0 140 140" fill="none" xmlns="http://www.w3.org/2000/svg">
<circle cx="70" cy="70" r="70" fill="#FEBC11"/>
<g clip-path="url(#clip0_38_2546)">
<path d="M57.4428 83.8003C58.6658 85.9368 59.845 87.9861 60.9807 89.9918C62.1599 92.0412 63.3392 94.0905 64.5185 96.1398C65.4794 97.8403 65.0863 99.3228 63.4266 100.326C57.006 104.294 48.7074 102.244 44.8638 95.7038C42.2868 91.2563 39.7535 86.7652 37.2203 82.3178C36.9582 81.8381 36.6525 81.6201 36.1283 81.4893C32.8089 80.8353 30.625 78.1755 30.625 74.7745C30.625 68.7137 30.625 62.653 30.625 56.6358C30.625 52.5807 33.4203 49.703 37.4823 49.6594C40.5397 49.6157 43.5535 49.6157 46.6109 49.6594C51.1533 49.6594 55.39 48.6129 59.452 46.7816C63.0772 45.1683 66.746 43.6858 70.4149 42.0725C70.808 41.8981 71.2011 41.5056 71.3758 41.1132C72.3804 39.0203 73.9965 37.7558 76.355 37.7122C78.2332 37.625 80.1113 37.6686 81.9894 37.7122C85.2652 37.7994 87.5364 40.1976 87.5364 43.5114C87.5364 53.2784 87.5364 63.0454 87.5364 72.8124C87.5364 77.7395 87.5364 82.7102 87.5364 87.6373C87.5364 91.3435 85.1778 93.6981 81.4216 93.7417C79.8492 93.7417 78.3205 93.7853 76.7481 93.7417C74.1275 93.6981 72.293 92.5208 71.2885 90.079C71.1574 89.8174 70.9391 89.5122 70.677 89.425C66.3966 87.5937 62.1163 85.7624 57.8359 83.9747C57.8359 83.8439 57.7485 83.8439 57.4428 83.8003ZM70.8954 48.0461C70.5896 48.1769 70.3276 48.2205 70.1092 48.3513C67.0955 49.6157 64.0817 50.8802 61.068 52.1883C56.3945 54.2812 51.5027 55.2841 46.3925 55.1969C43.5535 55.1533 40.7144 55.1969 37.8754 55.1969C36.5214 55.1969 36.2594 55.5021 36.2157 56.8538C36.2157 62.6966 36.2157 68.5393 36.2157 74.3821C36.2157 75.7338 36.5214 76.039 37.8754 76.039C40.8455 76.039 43.7718 76.039 46.7419 76.039C51.5464 75.9954 56.1325 76.9546 60.5439 78.8732C62.8151 79.876 65.13 80.8353 67.4012 81.7945C68.5368 82.2742 69.6287 82.7538 70.8517 83.2334C70.8954 71.5043 70.8954 59.8188 70.8954 48.0461ZM81.902 88.0297C81.902 73.1176 81.902 58.2491 81.902 43.2934C80.417 43.2934 79.0193 43.337 77.578 43.2934C76.7918 43.2498 76.5297 43.5114 76.5297 44.2962C76.5734 58.5543 76.5297 72.8124 76.5297 87.1141C76.5297 87.4193 76.5734 87.7245 76.5734 88.0733C78.4079 88.0297 80.1113 88.0297 81.902 88.0297ZM43.4224 81.7945C43.5098 81.9689 43.5535 82.0998 43.5971 82.187C45.65 85.7624 47.6591 89.425 49.7993 92.9568C50.4108 93.9597 51.328 94.8753 52.3326 95.573C54.0797 96.7939 56.0888 97.0555 58.1853 96.5758C58.1416 96.445 58.1416 96.3578 58.1416 96.3142C55.4773 91.6051 52.813 86.9397 50.105 82.2742C49.974 82.0562 49.6683 81.8381 49.4499 81.8381C47.4407 81.7509 45.4752 81.7945 43.4224 81.7945Z" fill="black"/>
<path d="M106.536 85.5443C106.056 85.3699 105.531 85.2827 105.051 85.0647C102.081 83.5822 99.0672 82.0997 96.0971 80.5736C94.4811 79.7452 93.9133 78.1319 94.6558 76.693C95.3983 75.2977 97.0144 74.7744 98.5867 75.5593C101.644 77.0854 104.702 78.6115 107.759 80.1812C108.982 80.7916 109.593 82.0997 109.288 83.3206C108.982 84.5851 107.89 85.4571 106.536 85.5443Z" fill="black"/>
<path d="M94.3937 53.104C94.4374 52.2319 94.8742 51.3599 95.8787 50.8802C99.0235 49.2669 102.168 47.6972 105.357 46.1275C106.798 45.4299 108.414 46.0403 109.069 47.392C109.724 48.7437 109.288 50.357 107.89 51.0982C104.702 52.7551 101.557 54.3684 98.3247 55.8945C96.4465 56.7666 94.35 55.3277 94.3937 53.104Z" fill="black"/>
<path d="M101.863 68.4521C100.334 68.4521 98.8051 68.4521 97.3201 68.4521C95.6167 68.4521 94.4374 67.3184 94.3937 65.7487C94.35 64.1354 95.5293 62.871 97.2327 62.871C100.29 62.8274 103.391 62.8274 106.449 62.871C108.152 62.871 109.375 64.1354 109.375 65.7487C109.331 67.3184 108.108 68.4957 106.449 68.4957C104.92 68.4521 103.391 68.4521 101.863 68.4521Z" fill="black"/>
</g>
<defs>
<clipPath id="clip0_38_2546">
<rect width="78.75" height="64.75" fill="white" transform="translate(30.625 37.625)"/>
</clipPath>
</defs>
</svg>
