<svg width="140" height="140" viewBox="0 0 140 140" fill="none" xmlns="http://www.w3.org/2000/svg">
<circle cx="70" cy="70" r="70" fill="#FEBC11"/>
<g clip-path="url(#clip0_38_2554)">
<path d="M21 92.5366C21.4827 91.3596 22.3756 90.9032 23.6547 90.9272C25.4647 90.9753 27.2988 90.9512 29.2537 90.9512C29.2537 90.4228 29.2537 90.0144 29.2537 89.6061C29.2537 75.2176 29.2778 60.8531 29.2537 46.4646C29.2537 43.5581 30.1949 41.156 32.5117 39.3304C34.0804 38.1054 35.9386 37.6249 37.9176 37.6249C59.5895 37.6249 81.2855 37.6009 102.957 37.6249C108.17 37.6249 111.597 41.156 111.597 46.3925C111.597 60.781 111.597 75.1455 111.597 89.534C111.597 89.9424 111.597 90.3507 111.597 90.9512C112.321 90.9512 112.973 90.9512 113.624 90.9512C115 90.9512 116.4 90.9272 117.775 90.9753C118.886 91.0233 119.682 91.6479 119.778 92.7048C120.044 95.4432 119.803 98.0854 117.896 100.295C116.062 102.433 113.697 103.25 110.97 103.25C103.464 103.25 95.9828 103.25 88.4773 103.25C68.9774 103.25 49.4775 103.25 30.0018 103.25C26.9851 103.25 24.3787 102.361 22.6411 99.8149C21.8688 98.71 21.5309 97.2928 21 95.9956C21 94.8426 21 93.6896 21 92.5366ZM33.3564 90.8792C58.1415 90.8792 82.7818 90.8792 107.494 90.8792C107.494 90.4949 107.494 90.1586 107.494 89.8463C107.494 75.4098 107.494 60.9732 107.494 46.5367C107.494 43.3419 105.926 41.7565 102.692 41.7565C81.1648 41.7565 59.6619 41.7565 38.1348 41.7565C34.925 41.7565 33.3564 43.3419 33.3564 46.5367C33.3564 60.9732 33.3564 75.4098 33.3564 89.8463C33.3564 90.1826 33.3564 90.4949 33.3564 90.8792ZM25.0062 95.0348C25.2716 95.8275 25.3923 96.476 25.6819 97.0045C26.6231 98.686 28.1677 99.1183 30.0018 99.1183C56.9589 99.0943 83.9161 99.0943 110.873 99.0943C111.332 99.0943 111.766 99.0943 112.225 99.0463C114.204 98.8061 115.676 97.0766 115.627 95.0108C115.29 95.0108 114.928 95.0108 114.59 95.0108C103.947 95.0108 93.304 95.0108 82.637 94.9868C81.8647 94.9868 81.2855 95.1549 80.8028 95.7554C80.0064 96.7883 78.9446 97.1006 77.6655 97.0766C72.8629 97.0285 68.0845 97.0285 63.2819 97.0766C61.9304 97.1006 60.8203 96.7643 59.9756 95.6834C59.5412 95.1309 59.0103 94.9627 58.3104 94.9868C47.5951 95.0348 36.8798 95.0348 26.1646 95.0348C25.8508 95.0348 25.5371 95.0348 25.0062 95.0348Z" fill="black"/>
</g>
<defs>
<clipPath id="clip0_38_2554">
<rect width="98.875" height="65.625" fill="white" transform="translate(21 37.625)"/>
</clipPath>
</defs>
</svg>
