<svg width="303" height="324" viewBox="0 0 303 324" fill="none" xmlns="http://www.w3.org/2000/svg">
<path d="M288.17 202.335C284.415 196.648 281.451 192.549 276.248 188.515C270.781 184.217 264.523 181.771 258.925 178.266C261.098 177.936 251.943 175.687 254.116 174.828C247.398 174.96 255.829 171.918 249.506 170.398C243.446 168.877 238.242 166.959 232.644 164.116C232.314 163.984 232.051 163.851 231.721 163.719C233.895 167.885 236.53 174.299 240.153 184.151C241.733 188.846 242.985 194.334 243.973 200.748L244.039 201.144V202.335C244.039 203.856 243.446 206.699 239.494 208.749L238.44 209.278H234.488L233.434 208.749C230.207 207.162 228.362 204.318 228.362 201.078V200.087C228.231 199.425 228.099 198.83 227.967 198.169L228.428 205.707L223.027 209.278H219.997C216.374 209.278 214.003 206.104 213.279 205.112L212.291 203.789V202.202C212.291 200.946 212.422 199.888 212.752 198.962C211.895 183.82 211.039 171.059 210.249 160.678C206.231 161.074 202.213 161.736 198.261 162.661C195.56 163.322 192.465 164.711 189.83 165.504C187.327 166.232 184.692 166.43 182.123 167.224C182.584 171.257 183.309 175.621 184.165 180.25C185.483 188.515 186.932 191.755 187.722 192.945C188.842 193.871 189.501 194.202 189.83 194.334C189.896 194.069 191.015 193.21 192.991 190.697L194.441 188.846H198.458C201.291 188.846 203.728 190.499 205.111 193.342L205.638 194.4V195.524C205.638 201.277 200.764 204.98 197.141 207.294C193.914 208.749 191.542 209.278 189.369 209.278H189.039C184.626 208.815 180.74 206.897 177.052 203.657C174.088 201.277 170.399 195.458 167.171 171.125C165.854 171.456 164.603 171.786 163.219 171.984C161.507 172.249 159.86 172.513 158.148 172.844C158.082 176.547 158.082 179.721 158.082 182.432V198.83C158.148 198.83 158.279 199.359 158.411 200.153L158.675 201.144L158.543 202.136C157.687 207.426 154.13 209.344 151.166 209.344H150.178C142.735 209.344 142.735 199.558 142.735 196.384C142.735 188.846 142.801 181.969 142.866 175.621C140.166 176.15 137.399 176.745 134.699 177.274C135.16 180.051 135.555 183.027 135.753 186.333V196.384C135.753 197.772 135.819 199.954 136.082 202.93L136.28 205.773L130.813 209.344H125.741L120.735 205.509C120.735 205.509 120.406 198.83 120.34 197.243C118.825 200.219 116.124 201.938 112.897 201.938C109.472 201.938 107.1 199.227 106.31 198.301L104.861 196.582L105.454 192.681C105.322 189.97 105.256 187.656 105.124 185.672C102.094 186.465 99.0646 187.259 96.0347 187.986C94.9808 193.011 93.3341 197.508 90.897 201.475L90.6335 201.872L90.3042 202.202C86.945 205.839 83.3881 208.153 79.6996 209.079L79.1068 209.211H77.7894C74.035 209.211 67.8434 207.294 67.8434 194.532C67.7776 194.003 67.7776 193.54 67.7117 193.011C60.3345 193.805 53.5502 194.995 46.173 195.987C42.0893 196.516 37.5444 198.83 38.6642 203.922L39.0594 202.467C43.1431 204.583 40.9037 213.245 40.5085 217.543C39.9156 223.692 40.3767 229.775 39.718 235.925C39.3887 239.033 37.8079 242.008 38.0055 245.182C38.2031 248.488 40.1132 249.943 41.8258 252.72C44.7898 257.481 47.9515 261.779 52.0352 265.944C55.9214 269.912 58.8855 274.607 63.0351 278.243C68.2386 282.806 73.1787 287.236 77.987 292.261C80.1606 294.509 81.7414 297.154 83.7175 299.469C85.6935 301.783 88.5258 302.709 90.5677 304.824C93.5317 307.866 95.376 310.379 99.855 310.974C104.268 311.569 107.561 309.189 111.711 308.792C125.609 307.668 138.848 300.064 151.429 294.509C162.956 289.484 175.8 286.971 187.656 283.335C193.716 281.483 200.303 281.02 206.165 278.508C212.686 275.731 218.811 272.16 225.859 270.771C231.26 269.713 236.793 269.912 241.997 268.127C244.895 267.135 247.727 265.812 250.56 264.887C256.685 262.969 262.218 261.58 268.146 259.2C272.757 257.349 283.757 255.563 284.679 249.877C285.206 246.703 282.439 245.248 282.439 242.339C282.439 240.289 284.547 237.776 285.338 235.859C286.457 233.016 288.236 230.172 288.894 227.197C289.487 224.486 288.697 221.378 289.29 218.601C290.475 212.782 291.793 207.889 288.17 202.335Z" fill="#FEBC11"/>
<path d="M68.4362 32.2678H69.2925C70.0171 32.2678 70.6757 32.7967 71.3344 33.8547V34.3837C70.2805 44.0376 69.0949 53.4931 67.9093 62.618L68.1069 63.8082V65.4612C67.58 65.4612 66.8554 71.809 65.8674 84.5045C65.4722 91.1829 64.9453 96.4065 64.3525 100.043L63.1669 100.638H61.9812C61.1908 100.44 60.598 99.8449 60.137 98.7869C61.586 80.8678 62.7058 69.2302 63.3645 64.0065C59.8076 56.2041 55.131 48.4016 49.4006 40.5992C48.1491 39.6735 47.4904 38.7478 47.4904 37.6898V37.2931C47.4904 36.7641 48.0174 36.169 49.1371 35.4416H50.6521C51.5742 35.8384 52.2987 36.698 52.6939 38.0865C58.0292 44.6988 62.3764 51.5755 65.6698 58.7167H63.8914C65.2746 46.4841 66.3285 37.9543 67.053 33.1273L68.4362 32.2678Z" fill="black"/>
<path d="M90.7653 28.8294L91.2264 29.0939C90.3042 29.0939 89.8432 28.9616 89.8432 28.7633C95.8371 29.2922 98.8011 30.1518 98.8011 31.2759V31.6065C98.34 32.8629 97.5496 33.458 96.4299 33.458L90.5677 32.8629C90.3042 32.8629 89.448 32.929 87.9989 32.9951L88.1306 34.3837C88.1306 36.6318 88.4599 45.1616 89.1186 60.1053H89.3162C90.3042 60.1053 91.1605 60.0392 91.8192 59.9069C94.9808 60.1714 97.4838 60.3037 99.2622 60.3037L100.448 61.8906V62.8163C100.448 63.8743 99.7891 64.4033 98.4059 64.4033C97.2203 64.4033 95.2443 64.271 92.5437 64.0065C90.7653 64.1388 89.6455 64.2049 89.1845 64.2049V64.0065C89.1845 73.5282 89.6456 84.1739 90.5677 95.9437C90.7653 95.9437 90.8312 96.0098 90.8312 96.0759C95.0467 95.8114 97.6814 95.7453 98.867 95.7453C99.9209 96.0759 100.645 96.671 101.106 97.5306V97.9273C101.106 98.4563 100.58 99.0514 99.5257 99.7788C94.1904 99.911 90.9629 100.043 89.909 100.176C87.4061 100.176 86.1546 98.9853 86.1546 96.6049C85.2324 83.711 84.7714 72.9992 84.7714 64.4033V57.9233C84.1127 46.0873 83.7834 38.0865 83.7834 33.9869C83.3881 31.9371 83.1906 30.6808 83.1906 30.218L84.7714 29.0278H87.4719C87.9989 29.0939 89.1186 29.0278 90.7653 28.8294Z" fill="black"/>
<path d="M113.226 25.9861H113.424C114.148 25.9861 114.873 26.5151 115.466 27.5731C115.466 29.0939 115.531 29.8212 115.663 29.8212L115.268 29.0278C116.19 43.8392 116.651 56.2702 116.651 66.3869C117.046 69.6269 117.244 74.1894 117.244 80.0082V96.5388H126.861C127.651 96.5388 128.244 97.0016 128.705 97.9273V98.7208C128.705 99.911 127.124 100.506 124.028 100.506H114.741C114.016 100.506 113.358 99.9771 112.699 98.9192V97.4645C112.699 95.8775 112.765 95.018 112.831 95.018L112.699 93.6294V78.818C112.172 61.0971 111.645 46.3518 111.118 34.582L110.526 27.7714C110.921 26.6473 111.843 25.9861 113.226 25.9861Z" fill="black"/>
<path d="M142.142 25.9861H142.339C143.064 25.9861 143.789 26.5151 144.381 27.5731C144.381 29.0939 144.447 29.8212 144.579 29.8212L144.184 29.0278C145.106 43.8392 145.567 56.2702 145.567 66.3869C145.962 69.6269 146.16 74.1894 146.16 80.0082V96.5388H155.776C156.567 96.5388 157.16 97.0016 157.621 97.9273V98.7208C157.621 99.911 156.04 100.506 152.944 100.506H143.657C142.932 100.506 142.274 99.9771 141.615 98.9192V97.4645C141.615 95.8775 141.681 95.018 141.747 95.018L141.615 93.6294V78.818C141.088 61.0971 140.561 46.3518 140.034 34.582L139.441 27.7714C139.902 26.6473 140.759 25.9861 142.142 25.9861Z" fill="black"/>
<path d="M178.105 29.2261C182.65 29.2261 186.075 38.6155 188.447 57.3943C188.578 59.1796 188.644 61.4278 188.644 64.1388V64.9322C188.644 65.4612 188.578 65.9902 188.513 66.5192C188.644 66.6514 188.644 67.1804 188.644 68.1061V68.3045C188.644 69.2302 188.578 69.7592 188.513 69.8914C188.644 70.4204 188.644 70.751 188.644 70.8833C188.644 85.3641 186.537 94.4229 182.321 97.9935C180.608 98.6547 179.423 98.9853 178.764 98.9853H177.183C171.716 97.6629 168.357 91.1167 167.04 79.2147L166.447 70.9494C166.447 51.84 168.884 38.4833 173.758 30.8792C175.273 29.8212 176.722 29.2261 178.105 29.2261ZM170.86 70.4865C170.86 78.0245 171.848 84.5706 173.824 90.191C175.471 93.4971 176.722 95.1502 177.644 95.1502H177.842C179.884 95.1502 181.201 93.4971 181.86 90.2571C183.309 86.8188 184.034 79.4131 184.034 68.1061V64.0727C184.034 56.2041 182.65 47.2114 179.884 37.0286C178.962 34.9788 178.303 33.8547 177.842 33.5241C177.117 33.7886 176.656 34.2514 176.459 34.8465C172.77 42.7151 170.86 54.6171 170.86 70.4865Z" fill="black"/>
<path d="M228.033 32.0694H229.087C229.877 32.0694 230.47 32.5322 230.931 33.5241C229.482 62.9486 228.494 83.2482 228.099 94.4229C227.572 97.4645 226.65 98.9853 225.398 98.9853H225.003C223.62 98.9853 221.973 95.3486 219.997 88.0751C216.506 76.6359 214.728 70.6849 214.728 70.0898H216.967C215.913 85.0996 215.386 94.9518 215.386 99.6465L214.003 100.572H212.949C211.632 100.572 210.71 97.9935 210.051 92.7698C207.087 78.8841 204.189 61.0971 201.357 39.5412C201.291 39.5412 200.961 38.2849 200.369 35.7722C200.369 35.1771 200.896 34.5159 202.015 33.8547H203.201C204.584 33.8547 205.704 38.0204 206.692 46.2857C209.129 62.2212 210.71 72.4041 211.5 76.7682L213.345 86.8188H211.237C212.291 69.6269 213.081 60.3037 213.674 58.849L215.518 58.5184C217.033 58.5184 218.153 61.4278 218.746 67.3127C219.404 70.4865 221.117 76.7682 223.949 86.0253L225.398 91.0506L223.686 91.9102C224.476 68.1061 225.464 48.4678 226.584 32.929L228.033 32.0694Z" fill="black"/>
<path d="M78.0529 109.829C84.1786 109.829 87.933 115.714 89.1845 127.418V132.377C88.3282 138.46 85.4959 145.139 80.6876 152.28C80.49 152.346 80.1607 152.677 79.6337 153.404V152.478C82.7954 153.669 85.4959 156.181 87.8013 160.082C90.1066 163.521 91.6874 168.811 92.4779 176.018C92.4779 185.011 90.5677 192.615 86.7474 198.962C84.0468 201.938 81.3463 203.723 78.5798 204.384H77.8553C74.4302 204.384 72.7835 201.144 72.7835 194.598C70.7416 165.571 69.7536 143.287 69.7536 127.682C69.4243 123.186 68.8973 118.69 68.1728 114.26C71.5979 111.284 74.8913 109.829 78.0529 109.829ZM74.1009 116.243C75.4182 126.426 76.0769 141.304 76.0769 160.744C76.7356 168.678 77.5918 181.44 78.5798 199.029L78.4481 198.896C80.8193 197.904 82.5977 195.855 83.7834 192.549C85.7594 186.994 86.7474 181.506 86.7474 176.018C85.5618 168.744 84.5738 165.108 83.8492 165.108C82.6636 161.471 80.3583 158.694 76.999 156.776C75.2865 156.776 73.9033 155.917 72.9152 154.264V152.875C78.3822 146.66 81.9391 139.981 83.454 132.642V128.807C82.6636 119.483 80.8852 114.855 77.987 114.855C76.4721 114.855 75.1547 115.318 74.1009 116.243Z" fill="black"/>
<path d="M108.22 108.573H110.262C110.789 109.234 112.172 109.763 114.412 110.16C118.1 111.615 120.998 114.26 123.172 117.962C126.136 125.104 127.585 130.393 127.585 133.832V136.344C127.585 147.718 124.885 155.52 119.483 159.752C125.873 161.273 129.627 170.199 130.879 186.531V196.185C130.879 197.64 131.01 199.888 131.208 203.062L129.364 204.252H127.388L125.477 202.798C125.28 199.029 125.148 196.318 125.148 194.664V185.54C125.148 179.39 123.304 173.175 119.615 166.761C117.376 164.645 115.466 163.521 113.885 163.521H115.268C115.4 166.298 115.466 168.546 115.466 170.331V179.919C115.795 188.251 115.993 192.945 115.993 194.069V194.797C115.334 196.119 114.28 196.847 112.897 196.847C112.106 196.847 111.118 196.185 109.999 194.863L110.328 192.747C109.999 185.672 109.801 180.977 109.801 178.663V164.777C109.406 164.777 108.879 164.116 108.286 162.661V161.471C108.945 160.149 109.34 159.421 109.472 159.421C108.681 137.204 107.561 120.673 106.178 109.896L108.22 108.573ZM112.567 114.656C113.49 126.095 114.346 139.981 115.07 156.446C119.615 153.404 121.855 147.122 121.855 137.601V134.096C121.855 129.864 120.076 124.442 116.585 117.896C114.214 115.78 112.567 114.656 111.579 114.656H112.567Z" fill="black"/>
<path d="M150.375 115.913H151.363C153.603 115.913 154.723 120.806 154.723 130.592V133.898C154.723 137.204 154.196 145.734 153.208 159.487C153.208 160.016 153.273 160.678 153.471 161.339C153.273 170.199 153.208 177.274 153.208 182.432V198.83C153.208 199.095 153.405 199.888 153.735 201.277C153.405 203.327 152.549 204.384 151.166 204.384H150.178C148.465 204.384 147.609 201.673 147.609 196.318C147.609 167.025 148.136 146.924 149.124 135.882V128.873C149.124 124.971 148.86 121.467 148.399 118.293C148.333 117.5 148.992 116.706 150.375 115.913Z" fill="black"/>
<path d="M185.417 116.177H187.393C191.345 116.904 193.321 118.425 193.321 120.74C193.321 121.401 192.596 122.194 191.213 122.988H188.908C187.788 121.665 186.998 120.938 186.537 120.938C183.177 122.128 181.531 123.12 181.531 123.98C178.171 130.393 176.525 139.055 176.525 150.032V154.33C176.525 161.802 177.513 170.728 179.555 181.176C180.74 188.713 182.321 193.739 184.297 196.251C186.536 198.169 188.381 199.227 189.896 199.293C191.74 199.293 194.111 197.442 197.009 193.739H198.656C199.644 193.739 200.369 194.334 200.961 195.524V196.251C200.961 198.169 198.854 200.483 194.704 203.128C192.794 203.922 191.081 204.318 189.566 204.318H189.039C186.141 203.988 183.177 202.533 180.213 199.888C176.986 197.309 174.219 187.523 171.98 170.398C171.124 166.761 170.728 160.678 170.728 152.28V150.759C171.058 133.303 174.022 122.459 179.686 118.161C182.519 116.838 184.429 116.177 185.417 116.177Z" fill="black"/>
<path d="M228.428 111.879C230.536 111.879 231.853 112.607 232.38 113.995V115.45C232.38 122.922 230.668 132.906 227.374 145.271C226.716 148.511 225.398 153.735 223.488 160.942C225.464 160.942 229.482 169.273 235.608 185.87C237.057 190.102 238.242 195.326 239.165 201.541V202.335C239.165 203.062 238.572 203.723 237.254 204.384H235.608C234.027 203.591 233.237 202.467 233.237 201.078V200.814C233.237 199.822 233.236 199.293 233.171 199.293C231.26 190.168 229.021 183.027 226.518 177.671C223.093 169.472 221.249 165.438 221.117 165.438L223.356 203.128L221.512 204.318H219.997C219.207 204.318 218.285 203.591 217.165 202.136V201.541C217.165 200.88 217.362 200.351 217.692 199.756C216.111 172.58 214.728 153.007 213.41 141.039C211.039 127.616 209.854 119.087 209.854 115.384V114.656C209.854 113.995 210.512 113.202 211.895 112.408H212.883C213.74 112.408 214.596 113.069 215.452 114.392V115.913C215.979 120.74 217.494 132.047 219.997 149.966C220.524 155.851 220.722 158.826 220.722 158.958H218.153C223.817 136.94 226.65 123.451 226.65 118.558V116.045C226.65 115.913 226.518 115.053 226.32 113.532L228.428 111.879Z" fill="black"/>
<path d="M122.711 185.606C122.711 183.291 122.382 180.911 121.789 178.531C120.471 178.861 119.22 179.126 117.903 179.39C117.903 179.787 117.903 180.051 117.903 180.051C118.034 182.762 118.1 185.011 118.166 186.928C119.681 186.598 121.196 186.201 122.711 185.87V185.606Z" fill="black"/>
<path d="M104.993 182.233C102.226 182.829 99.4598 183.424 96.6933 184.019C96.2981 186.796 95.7053 189.375 94.9808 191.887C98.4059 191.094 101.831 190.367 105.322 189.639C105.124 186.664 105.058 184.217 104.993 182.233Z" fill="black"/>
<path d="M158.082 177.473C162.166 177.076 166.249 176.415 170.333 175.687C170.07 174.034 169.806 172.513 169.609 170.662C169.477 170.001 169.345 169.207 169.213 168.414C165.525 169.075 161.836 169.604 158.214 170.001C158.148 172.778 158.148 175.291 158.082 177.473Z" fill="black"/>
<path d="M142.801 172.381C141.286 172.646 139.902 172.976 138.585 173.307C137.004 173.704 135.555 174.233 134.04 174.762C134.501 177.01 134.831 179.456 135.16 182.101C136.938 181.506 138.651 180.845 140.429 180.382C141.154 180.184 141.878 180.051 142.735 179.853C142.735 177.274 142.801 174.762 142.801 172.381Z" fill="black"/>
<path d="M291.2 193.607C289.158 191.821 286.787 191.16 284.679 190.565C283.427 190.234 282.176 189.904 281.649 189.573C281.583 189.441 281.517 189.309 281.451 189.176C281.188 188.515 280.727 187.391 279.673 186.465C278.487 185.407 277.17 185.143 276.314 184.945C276.182 184.945 276.116 184.878 275.984 184.878C275.919 184.812 275.853 184.746 275.787 184.614C275.26 183.953 274.535 182.961 273.284 182.3C272.296 181.771 271.242 181.572 270.32 181.506C269.266 180.382 267.488 178.993 264.326 177.274C261.889 175.886 259.32 174.497 256.817 173.307C255.631 172.712 254.446 171.984 253.26 171.191C251.943 170.331 250.691 169.538 249.374 168.877C248.254 168.282 246.871 168.149 245.62 167.951C245.356 167.951 245.093 167.885 244.763 167.819L245.027 165.835L241.338 165.174C241.206 165.108 241.141 164.976 241.009 164.909C240.614 164.579 240.021 164.05 239.099 163.587C237.979 162.992 236.793 162.793 235.739 162.595C235.278 162.529 234.686 162.397 234.488 162.331C233.698 161.934 232.841 161.339 231.985 160.678C231.129 160.016 230.075 159.355 229.021 158.76C228.955 158.892 228.955 158.958 228.955 159.091C230.47 161.14 232.314 164.513 234.554 169.802C234.949 169.869 235.542 170.001 235.739 170.067C235.937 170.199 236.069 170.265 236.398 170.53C236.727 170.794 237.189 171.191 237.781 171.522C237.913 171.786 238.045 172.117 238.242 172.381C239.823 174.629 242.656 174.96 244.763 175.224C245.356 175.291 245.883 175.357 246.081 175.423C247.2 176.018 248.254 176.679 249.308 177.34C250.691 178.2 252.075 179.126 253.655 179.919C256.027 181.043 258.464 182.432 260.835 183.688C261.428 184.019 262.021 184.349 262.547 184.746L257.937 188.317L267.817 188.846H268.805C269.134 188.846 269.595 188.846 269.859 188.846C269.925 188.912 269.99 189.044 270.056 189.11C270.517 189.705 271.11 190.499 272.098 191.16C273.086 191.821 274.14 192.02 274.799 192.152C275.128 193.011 275.721 194.334 277.236 195.392C278.817 196.516 280.595 197.111 282.242 197.508C281.583 197.706 280.99 197.971 280.398 198.169C278.883 198.764 277.434 199.293 275.984 199.425C275.128 199.558 274.206 199.491 273.152 199.425C271.835 199.359 270.386 199.293 268.937 199.491C266.961 199.756 265.05 200.417 263.338 201.012L262.152 201.409C253.787 204.186 246.673 206.434 240.087 208.352C239.889 208.484 239.757 208.616 239.56 208.682L238.506 209.211H236.991C235.542 209.608 234.027 210.071 232.578 210.402L231.722 210.6C226.913 211.922 221.907 213.245 217.099 214.171C214.662 214.633 212.422 215.427 210.249 216.154C207.812 216.948 205.506 217.741 203.201 218.006C200.039 218.336 197.009 219.394 194.111 220.386C192.201 221.047 190.423 221.642 188.71 222.039C184.034 223.031 177.974 224.353 172.112 225.411C162.692 227.131 150.375 229.709 138.651 234.602C135.819 235.793 132.591 236.388 129.232 236.983C126.465 237.512 123.567 237.975 120.735 238.9C115.136 240.686 110.13 242.405 105.52 244.124C104.861 244.389 104.268 244.653 103.675 244.851C102.094 245.513 102.094 245.513 101.106 245.05C100.514 244.785 100.25 244.455 99.5915 243.463C98.9987 242.537 98.1424 241.215 96.6275 240.091C95.7053 239.429 94.7832 239.099 94.1245 238.9C93.9269 238.834 93.7952 238.768 93.7293 238.834C93.6635 238.768 93.4659 238.371 93.3341 238.173C93.0048 237.578 92.6096 236.851 91.9509 236.123C91.2264 235.33 90.5018 234.602 89.8432 233.941C88.921 233.016 88.1306 232.222 87.3402 231.23C85.43 228.718 82.9271 227.064 80.5559 225.478C78.9092 224.353 77.3942 223.362 76.2745 222.171C74.2985 220.188 72.2566 218.799 70.2805 217.477C68.568 216.353 66.9213 215.295 65.5381 213.84C62.7717 211.063 59.5441 209.145 56.3825 207.36C55.2628 206.699 54.143 206.104 53.0891 205.376C50.8497 203.988 49.0054 202.401 47.0952 200.351C50.191 199.359 55.9214 197.904 66.3944 196.45C66.9213 196.384 67.4482 196.384 67.9752 196.318C67.9093 195.656 67.8434 195.127 67.8434 194.4C67.7117 192.549 67.58 190.829 67.5141 189.044C66.7896 189.11 66.065 189.11 65.2087 189.242C43.6042 192.284 39.1911 195.458 37.8079 197.376C36.9516 197.772 36.3588 198.301 36.0954 198.632C34.1852 200.946 35.3049 203.988 36.0295 205.971C36.1612 206.302 36.2271 206.567 36.2271 206.434C36.2271 206.567 36.1612 207.029 36.0954 207.36C35.8978 208.22 35.7002 209.344 35.8319 210.6C35.9636 211.922 36.293 212.848 36.5564 213.509C36.6882 213.774 36.754 214.038 36.8199 214.369C37.0834 215.625 36.9516 217.278 36.754 219.064C36.5564 220.981 36.3588 223.031 36.6882 225.081L36.754 225.742C37.2151 229.114 37.6103 231.759 37.281 234.999C36.8858 238.702 36.6223 242.471 36.4247 246.571C36.293 248.753 36.293 250.802 37.4786 253.315C37.742 253.976 38.0714 254.439 38.4666 254.902C38.5324 255.299 38.5983 255.629 38.5983 255.96C38.7959 257.613 39.0594 259.729 41.1671 261.977C42.1552 262.969 43.209 263.63 44.1312 264.225C44.724 264.622 45.3168 264.953 45.6461 265.349C46.4365 266.077 46.8976 266.936 47.4245 267.928C48.215 269.317 49.203 271.102 51.1131 272.557C53.7478 274.54 55.8556 276.656 58.0951 278.971C59.3465 280.227 60.7298 281.219 62.0471 282.211C63.6279 283.335 65.077 284.393 65.9333 285.649C66.1968 285.98 66.3285 286.31 66.5261 286.641C66.9872 287.567 67.6458 288.823 68.9632 290.013C69.3584 290.344 69.7536 290.674 70.1488 291.005C70.8075 291.468 71.0709 291.666 71.2027 291.997L71.6638 292.856C72.52 294.509 73.3763 296.229 76.2086 297.816L76.7355 298.08C78.1846 298.94 78.975 299.336 79.8972 300.394C81.2804 301.981 82.7953 303.502 84.3103 304.957C85.1007 305.75 85.8911 306.544 86.6815 307.271C88.1306 308.792 89.6456 309.387 90.9629 309.982L91.7533 310.313C92.3461 310.577 92.8072 310.908 93.4 311.371C94.0587 311.9 94.7832 312.362 95.5078 312.759L96.6934 310.511L96.5616 312.495C99.5915 312.627 102.358 312.561 105.19 312.164C107.035 311.9 108.615 311.238 110.064 310.709C110.987 310.313 111.843 309.982 112.502 309.85C113.226 309.718 113.885 309.651 114.609 309.651C115.795 309.585 117.178 309.519 118.759 309.056C120.208 308.66 121.591 308.064 122.843 307.469C123.567 307.139 124.358 306.808 125.082 306.544L127.19 305.816C130.286 304.692 133.25 303.634 136.477 301.981C139.573 300.328 143.459 298.807 147.675 297.617C156.764 294.972 164.734 292.922 172.836 291.137C174.219 290.807 175.537 290.608 176.854 290.344C180.279 289.682 183.77 289.021 187.393 287.699C189.303 286.971 191.147 286.178 192.992 285.318C194.836 284.459 196.548 283.665 198.327 283.07C208.207 279.566 217.099 276.722 225.53 274.342C228.099 273.615 230.734 272.953 233.302 272.292C235.476 271.763 237.65 271.168 239.823 270.573C241.668 270.044 243.314 269.383 244.961 268.722C246.608 268.06 248.188 267.399 249.703 267.002C251.35 266.606 252.931 266.209 254.578 265.812C261.494 264.159 268.607 262.44 275.326 259.597L275.26 259.332C275.984 259.002 276.972 258.737 277.96 258.407C279.805 257.878 281.912 257.349 283.625 256.092L282.769 254.902C285.403 252.588 286.457 247.761 287.182 242.868L287.248 242.339C287.577 240.421 287.709 238.57 287.841 236.785C287.972 234.867 288.104 233.016 288.499 231.296C289.224 227.66 289.817 224.155 290.278 220.32C290.344 219.725 290.607 219.13 290.87 218.402C291.2 217.543 291.595 216.551 291.858 215.427C292.254 213.509 292.451 211.526 292.649 209.74L292.715 209.344C292.781 208.55 292.978 207.691 293.176 206.699C293.9 202.665 295.02 196.979 291.2 193.607ZM97.0227 263.829C96.891 265.812 96.6934 267.796 96.4299 269.713C96.1006 272.557 95.7054 275.466 95.7054 278.574C95.7712 285.517 95.3101 293.319 94.8491 300.196C94.7832 301.386 94.7173 302.576 94.6515 303.767C94.5856 303.767 94.5856 303.767 94.5856 303.7L93.5976 303.304C92.5437 302.841 92.1485 302.709 91.8192 302.312C91.0288 301.518 90.1725 300.659 89.3162 299.799C87.933 298.477 86.5498 297.088 85.3642 295.7C83.6516 293.716 82.0708 292.79 80.3582 291.798L79.8972 291.534C78.975 291.005 78.8433 290.807 78.1846 289.55L77.6577 288.492C76.7355 286.773 75.4841 285.847 74.5619 285.186C74.2984 284.988 74.035 284.789 73.8374 284.591C73.5739 284.327 73.3763 284.062 73.047 283.335C72.7176 282.74 72.4542 282.078 71.9931 281.483C70.4123 279.235 68.3045 277.648 66.3944 276.326C65.2746 275.532 64.2207 274.739 63.4303 273.945C61.125 271.565 58.6879 269.052 55.5921 266.738C54.9334 266.275 54.6041 265.614 53.9454 264.49C53.2209 263.233 52.3646 261.647 50.7838 260.126C49.8616 259.266 48.9395 258.671 48.1491 258.142C47.4904 257.745 46.8976 257.349 46.5683 256.952C46.1072 256.489 46.1072 256.357 45.9755 255.1C45.9096 254.505 45.8437 253.91 45.712 253.249C45.4485 251.927 44.7898 251.001 44.2629 250.273C43.8018 249.348 43.8018 248.62 43.8677 246.967C44.0653 243 44.3946 239.297 44.724 235.727C45.1851 231.561 44.6581 228.255 44.1312 224.684L44.0653 224.023C43.8677 222.833 44.0653 221.378 44.197 219.791C44.3946 217.609 44.6581 215.162 44.1312 212.716C43.9994 211.989 43.736 211.393 43.5384 210.798C43.3408 210.336 43.2749 210.203 43.2749 209.939C43.2749 209.74 43.4066 209.211 43.4725 208.881C43.6042 208.352 43.6701 207.691 43.736 207.029C45.5144 208.749 47.4245 210.203 49.4664 211.526C50.652 212.253 51.8377 212.914 53.0233 213.642C55.8556 215.295 58.5561 216.816 60.6639 218.931C62.6399 220.915 64.6159 222.238 66.592 223.494C68.3045 224.618 69.9512 225.742 71.4003 227.197C73.1128 228.916 75.023 230.238 76.8673 231.495C78.8433 232.817 80.7535 234.073 81.9391 235.66C82.9929 237.049 84.0468 238.107 85.0348 239.099C85.6276 239.694 86.2204 240.289 86.8791 241.016C86.945 241.082 87.1426 241.413 87.2743 241.678C87.7354 242.537 88.3282 243.661 89.5797 244.587C90.5677 245.38 91.5557 245.645 92.2144 245.909C92.412 245.976 92.5437 246.042 92.5437 245.976C93.0048 246.306 93.3341 246.769 93.7952 247.496C94.4539 248.554 95.376 249.877 97.0886 250.935L96.6275 251.199C96.891 252.654 97.2203 259.464 97.0227 263.829ZM285.93 205.376C285.667 206.633 285.469 207.757 285.403 208.682L285.338 209.079C285.206 210.732 285.008 212.518 284.679 214.038C284.547 214.633 284.35 215.162 284.086 215.691C283.691 216.683 283.164 217.94 282.966 219.527C282.505 223.163 281.978 226.469 281.32 229.908C280.859 232.09 280.727 234.272 280.529 236.322C280.398 237.909 280.266 239.562 280.002 241.215L279.936 241.744C279.014 247.43 278.224 249.083 277.829 249.48C277.895 249.414 278.158 249.216 278.487 249.083L278.883 250.34C278.158 250.736 276.972 251.067 275.919 251.331C274.469 251.728 272.955 252.191 271.505 252.852L271.571 253.051C265.577 255.431 259.057 257.084 252.667 258.605C251.021 259.002 249.374 259.398 247.727 259.795C245.62 260.324 243.775 261.118 241.931 261.845C240.416 262.44 239.033 263.035 237.65 263.432C235.542 264.027 233.368 264.556 231.26 265.085C228.626 265.746 225.925 266.473 223.29 267.201C214.728 269.647 205.704 272.491 195.626 276.061C193.518 276.789 191.608 277.714 189.698 278.574C188.051 279.301 186.339 280.095 184.626 280.756C181.531 281.88 178.435 282.475 175.141 283.136C173.758 283.401 172.375 283.665 170.926 283.996C162.693 285.781 154.591 287.897 145.304 290.608C142.076 291.534 137.202 293.187 132.723 295.501C129.956 296.956 127.388 297.882 124.358 298.94L122.25 299.733C121.328 300.064 120.471 300.46 119.549 300.857C118.43 301.32 117.376 301.783 116.388 302.113C115.663 302.312 114.873 302.378 113.885 302.444C112.831 302.51 111.777 302.576 110.723 302.775C109.406 303.039 108.154 303.568 107.035 304.031C105.915 304.494 104.861 304.891 103.873 305.023C103.148 305.155 102.358 305.155 101.633 305.221C101.699 303.767 101.831 302.246 101.897 300.725C102.358 293.716 102.819 285.781 102.753 278.64C102.753 275.995 103.017 273.482 103.412 270.771C103.675 268.656 103.939 266.54 104.071 264.358C104.071 264.291 104.334 257.679 103.741 252.654C104.729 252.456 105.52 252.059 106.376 251.728C106.771 251.53 107.298 251.331 107.825 251.133C112.37 249.414 117.244 247.761 122.711 246.042C125.082 245.248 127.651 244.851 130.286 244.322C133.908 243.661 137.663 243 141.22 241.479C152.351 236.851 164.142 234.338 173.231 232.685C179.159 231.627 185.351 230.305 190.027 229.247C192.135 228.784 194.243 228.056 196.219 227.395C198.854 226.469 201.423 225.61 203.728 225.411C206.89 225.081 209.656 224.155 212.357 223.229C214.333 222.568 216.243 221.907 218.219 221.51C223.29 220.518 228.362 219.196 233.368 217.807L234.224 217.609C242.853 215.295 252.404 212.385 264.128 208.484L265.446 208.021C266.895 207.492 268.344 207.029 269.661 206.831C270.452 206.699 271.44 206.765 272.493 206.831C273.745 206.897 275.128 206.963 276.643 206.831C278.948 206.567 280.924 205.839 282.703 205.178C283.889 204.715 284.942 204.384 285.996 204.186C286.128 204.451 286.062 204.847 285.93 205.376Z" fill="black"/>
<path d="M210.117 158.628C209.59 158.76 208.997 158.892 208.47 159.025C207.548 159.289 206.626 159.553 205.704 159.752L199.051 161.471C192.86 163.124 186.536 164.711 180.213 166.166C180.016 166.232 179.818 166.232 179.62 166.298C179.884 168.612 180.213 171.059 180.608 173.571C180.806 173.505 181.069 173.505 181.333 173.439C187.986 171.918 194.506 170.265 200.896 168.546L207.548 166.827C208.47 166.562 209.458 166.298 210.446 166.033C210.512 166.033 210.578 165.967 210.71 165.967C210.512 163.455 210.315 161.008 210.117 158.628Z" fill="black"/>
<path d="M241.47 105.465C241.997 105.465 242.524 105.465 243.117 105.465C248.584 105.465 248.584 96.9355 243.117 96.9355C242.59 96.9355 242.063 96.9355 241.47 96.9355C236.003 96.9355 236.003 105.465 241.47 105.465Z" fill="black"/>
<path d="M44.9874 101.233C44.6581 101.233 44.3288 101.233 43.9994 101.233C38.5324 101.233 38.5324 109.763 43.9994 109.763C44.1312 109.763 44.3288 109.763 44.4605 109.763C49.9275 109.763 49.9275 101.233 44.4605 101.233C44.3288 101.233 44.1312 101.233 43.9994 101.233C38.5324 101.233 38.5324 109.763 43.9994 109.763C44.3288 109.763 44.6581 109.763 44.9874 109.763C50.4544 109.763 50.4544 101.233 44.9874 101.233Z" fill="black"/>
</svg>
